<?xml version="1.0" encoding="UTF-8"?>
<!-- Created with Inkscape (http://www.inkscape.org/) -->
<svg width="56.909mm" height="15.247mm" version="1.1" viewBox="0 0 56.909 15.247" xmlns="http://www.w3.org/2000/svg" xmlns:cc="http://creativecommons.org/ns#" xmlns:dc="http://purl.org/dc/elements/1.1/" xmlns:rdf="http://www.w3.org/1999/02/22-rdf-syntax-ns#">
 <metadata>
  <rdf:RDF>
   <cc:Work rdf:about="">
    <dc:format>image/svg+xml</dc:format>
    <dc:type rdf:resource="http://purl.org/dc/dcmitype/StillImage"/>
    <dc:title/>
   </cc:Work>
  </rdf:RDF>
 </metadata>
 <g transform="translate(-34.954 -83.203)">
  <g>
   <text x="49.083519" y="94.28624" fill="#557add" font-family="'Bradley Hand ITC'" font-size="10.583px" letter-spacing="0px" stroke-width=".26458" word-spacing="0px" style="line-height:1.25" xml:space="preserve"><tspan x="49.083519" y="94.28624" fill="#557add" font-family="'Eras Medium ITC'" font-size="11.289px" stroke-width=".26458">Dulcet</tspan></text>
   <text x="49.329094" y="98.450386" fill="#ffffff" font-family="NSimSun" font-size="10.583px" letter-spacing="0px" stroke-width=".26458" word-spacing="0px" style="line-height:1.25" xml:space="preserve"><tspan x="49.329094" y="98.450386" fill="#ffffff" font-family="NSimSun" font-size="3.8806px" stroke-width=".26458">MINIMALISTIC TO DO APP</tspan></text>
   <path d="m48.544 90.771a6.5585 7.5675 0 0 1-6.5483 7.5675 6.5585 7.5675 0 0 1-6.5687-7.5439 6.5585 7.5675 0 0 1 6.5278-7.5911 6.5585 7.5675 0 0 1 6.5891 7.5202" fill="#557add" style="paint-order:normal"/>
  </g>
  <g fill="none" stroke="#fff">
   <path d="m35.097 85.086 11.681-0.842h-0.10524l-1.4733 11.133-7.998-0.37422z" stroke-width=".23417px"/>
   <path d="m35.781 85.162 12.444-1.009h-0.11211l-1.5696 13.341-8.5205-0.44844z" stroke-width=".26458px"/>
   <path d="m35.781 85.162 10.892-0.91786h-0.09813l-1.3738 12.136-7.4577-0.40793z" stroke-width=".23609px"/>
  </g>
  <path d="m39.239 86.735a0.56056 0.61661 0 0 1-0.55968 0.61661 0.56056 0.61661 0 0 1-0.56143-0.61469 0.56056 0.61661 0 0 1 0.55793-0.61853 0.56056 0.61661 0 0 1 0.56317 0.61275" fill="#fffbfb" style="paint-order:normal"/>
  <path d="m46.863 93.181a0.5045 0.44845 0 0 1-0.50371 0.44845 0.5045 0.44845 0 0 1-0.50529-0.44704 0.5045 0.44845 0 0 1 0.50214-0.44984 0.5045 0.44845 0 0 1 0.50686 0.44564" fill="#fffbfb" style="paint-order:normal"/>
 </g>
</svg>
